<mxfile host="app.diagrams.net" modified="2023-11-20T16:17:36.077Z" agent="Mozilla/5.0 (Macintosh; Intel Mac OS X 10_15_7) AppleWebKit/537.36 (KHTML, like Gecko) Chrome/119.0.0.0 Safari/537.36" etag="CLvNarW0WrI2SbQgmVuh" version="22.1.3" type="github">
  <diagram name="Page-1" id="uvNH3HljC0vuYnI0tGLo">
    <mxGraphModel dx="1755" dy="765" grid="1" gridSize="10" guides="1" tooltips="1" connect="1" arrows="1" fold="1" page="1" pageScale="1" pageWidth="850" pageHeight="1100" math="0" shadow="0">
      <root>
        <mxCell id="0" />
        <mxCell id="1" parent="0" />
        <mxCell id="HJEk7el8rSxgpdv1ZUFd-11" style="edgeStyle=orthogonalEdgeStyle;rounded=0;orthogonalLoop=1;jettySize=auto;html=1;exitX=0.5;exitY=1;exitDx=0;exitDy=0;entryX=0.5;entryY=0;entryDx=0;entryDy=0;" edge="1" parent="1" source="HJEk7el8rSxgpdv1ZUFd-1" target="HJEk7el8rSxgpdv1ZUFd-3">
          <mxGeometry relative="1" as="geometry" />
        </mxCell>
        <mxCell id="HJEk7el8rSxgpdv1ZUFd-1" value="START" style="ellipse;whiteSpace=wrap;html=1;" vertex="1" parent="1">
          <mxGeometry x="365" y="10" width="115" height="40" as="geometry" />
        </mxCell>
        <mxCell id="HJEk7el8rSxgpdv1ZUFd-2" value="END" style="ellipse;whiteSpace=wrap;html=1;" vertex="1" parent="1">
          <mxGeometry x="365" y="680" width="115" height="40" as="geometry" />
        </mxCell>
        <mxCell id="HJEk7el8rSxgpdv1ZUFd-12" style="edgeStyle=orthogonalEdgeStyle;rounded=0;orthogonalLoop=1;jettySize=auto;html=1;exitX=0.5;exitY=1;exitDx=0;exitDy=0;entryX=0.5;entryY=0;entryDx=0;entryDy=0;" edge="1" parent="1" source="HJEk7el8rSxgpdv1ZUFd-3" target="HJEk7el8rSxgpdv1ZUFd-4">
          <mxGeometry relative="1" as="geometry" />
        </mxCell>
        <mxCell id="HJEk7el8rSxgpdv1ZUFd-3" value="i = 1;" style="rounded=0;whiteSpace=wrap;html=1;" vertex="1" parent="1">
          <mxGeometry x="342.5" y="80" width="160" height="40" as="geometry" />
        </mxCell>
        <mxCell id="HJEk7el8rSxgpdv1ZUFd-13" style="edgeStyle=orthogonalEdgeStyle;rounded=0;orthogonalLoop=1;jettySize=auto;html=1;exitX=0.5;exitY=1;exitDx=0;exitDy=0;entryX=0.5;entryY=0;entryDx=0;entryDy=0;" edge="1" parent="1" source="HJEk7el8rSxgpdv1ZUFd-4" target="HJEk7el8rSxgpdv1ZUFd-5">
          <mxGeometry relative="1" as="geometry" />
        </mxCell>
        <mxCell id="HJEk7el8rSxgpdv1ZUFd-4" value="i &amp;lt; array.length;" style="rhombus;whiteSpace=wrap;html=1;" vertex="1" parent="1">
          <mxGeometry x="337.5" y="160" width="170" height="80" as="geometry" />
        </mxCell>
        <mxCell id="HJEk7el8rSxgpdv1ZUFd-14" style="edgeStyle=orthogonalEdgeStyle;rounded=0;orthogonalLoop=1;jettySize=auto;html=1;exitX=0.5;exitY=1;exitDx=0;exitDy=0;entryX=0.5;entryY=0;entryDx=0;entryDy=0;" edge="1" parent="1" source="HJEk7el8rSxgpdv1ZUFd-5" target="HJEk7el8rSxgpdv1ZUFd-6">
          <mxGeometry relative="1" as="geometry" />
        </mxCell>
        <mxCell id="HJEk7el8rSxgpdv1ZUFd-5" value="lastIndex = i - 1;" style="rounded=0;whiteSpace=wrap;html=1;" vertex="1" parent="1">
          <mxGeometry x="342.5" y="280" width="160" height="40" as="geometry" />
        </mxCell>
        <mxCell id="HJEk7el8rSxgpdv1ZUFd-15" style="edgeStyle=orthogonalEdgeStyle;rounded=0;orthogonalLoop=1;jettySize=auto;html=1;exitX=0.5;exitY=1;exitDx=0;exitDy=0;entryX=0.5;entryY=0;entryDx=0;entryDy=0;" edge="1" parent="1" source="HJEk7el8rSxgpdv1ZUFd-6" target="HJEk7el8rSxgpdv1ZUFd-7">
          <mxGeometry relative="1" as="geometry" />
        </mxCell>
        <mxCell id="HJEk7el8rSxgpdv1ZUFd-6" value="lastIndex &amp;gt;= 0 &amp;amp;&amp;amp;&lt;br&gt;array[lastIndex] &amp;gt;&lt;br&gt;currentIndex" style="rhombus;whiteSpace=wrap;html=1;spacingTop=4;" vertex="1" parent="1">
          <mxGeometry x="337.5" y="360" width="170" height="80" as="geometry" />
        </mxCell>
        <mxCell id="HJEk7el8rSxgpdv1ZUFd-16" style="edgeStyle=orthogonalEdgeStyle;rounded=0;orthogonalLoop=1;jettySize=auto;html=1;exitX=0.5;exitY=1;exitDx=0;exitDy=0;entryX=0.5;entryY=0;entryDx=0;entryDy=0;" edge="1" parent="1" source="HJEk7el8rSxgpdv1ZUFd-7" target="HJEk7el8rSxgpdv1ZUFd-9">
          <mxGeometry relative="1" as="geometry" />
        </mxCell>
        <mxCell id="HJEk7el8rSxgpdv1ZUFd-7" value="array[lastIndex + 1] = array[lastIndex]" style="rounded=0;whiteSpace=wrap;html=1;" vertex="1" parent="1">
          <mxGeometry x="342.5" y="470" width="160" height="60" as="geometry" />
        </mxCell>
        <mxCell id="HJEk7el8rSxgpdv1ZUFd-8" value="lastIndex--;" style="rounded=0;whiteSpace=wrap;html=1;" vertex="1" parent="1">
          <mxGeometry x="60" y="280" width="160" height="40" as="geometry" />
        </mxCell>
        <mxCell id="HJEk7el8rSxgpdv1ZUFd-17" style="edgeStyle=orthogonalEdgeStyle;rounded=0;orthogonalLoop=1;jettySize=auto;html=1;exitX=0.5;exitY=1;exitDx=0;exitDy=0;entryX=0.5;entryY=0;entryDx=0;entryDy=0;" edge="1" parent="1" source="HJEk7el8rSxgpdv1ZUFd-9" target="HJEk7el8rSxgpdv1ZUFd-2">
          <mxGeometry relative="1" as="geometry" />
        </mxCell>
        <mxCell id="HJEk7el8rSxgpdv1ZUFd-9" value="array[lastIndex + 1] = currentIndex;" style="rounded=0;whiteSpace=wrap;html=1;" vertex="1" parent="1">
          <mxGeometry x="342.5" y="580" width="160" height="60" as="geometry" />
        </mxCell>
        <mxCell id="HJEk7el8rSxgpdv1ZUFd-10" value="i++;" style="rounded=0;whiteSpace=wrap;html=1;" vertex="1" parent="1">
          <mxGeometry x="650" y="280" width="160" height="40" as="geometry" />
        </mxCell>
      </root>
    </mxGraphModel>
  </diagram>
</mxfile>
